<?xml version="1.0" encoding="utf-8"?>
<!-- Generator: Adobe Illustrator 24.0.0, SVG Export Plug-In . SVG Version: 6.00 Build 0)  -->
<svg version="1.1" id="e0762bcb-145d-4970-9329-c1cada5e7f17"
	 xmlns="http://www.w3.org/2000/svg" xmlns:xlink="http://www.w3.org/1999/xlink" x="0px" y="0px" viewBox="0 0 517.1 546"
	 style="enable-background:new 0 0 517.1 546;" xml:space="preserve">
<style type="text/css">
	.st0{fill:#F2F2F2;}
	.st1{fill:#FFFFFF;}
	.st2{fill:#CCCCCC;}
	.st3{fill:#FFB8B8;}
	.st4{fill:#2F2E41;}
	.st5{fill:#37323E;}
</style>
<path class="st0" d="M30.1,499.2c5.1,17.5,19.8,29.8,35.2,40.2c2.1,1.5,4.3,2.9,6.4,4.3c0,0,0,0,0,0c0.1,0.1,0.2,0.1,0.3,0.2
	c0.4,0.3,0.9,0.6,1.3,0.9l-0.2,0.1c0,0-0.2,0.1,0,0c0.1,0,0.2-0.1,0.2-0.1c8.9-3.6,18-7.5,24.9-14.2c7.1-7,11.3-18,7.4-27.2
	c-0.5-1.2-1.1-2.4-1.9-3.4c-0.3-0.4-0.6-0.9-1-1.3c-6.6-8.1-18.5-9.2-26.5-2.6c-2.7,2.2-4.7,5.1-5.8,8.4
	c-1.1-10.5,7.5-19.3,15.9-25.8c8.4-6.5,17.9-13.6,19.5-24.1c0.9-5.8-1.1-11.5-4.8-16c-0.1-0.1-0.2-0.3-0.3-0.4
	c-4.5-5.3-10.8-8.7-17.7-9.5c-12.8-1.3-25.3,5.5-34.6,14.4C33.4,457.2,24.3,479.2,30.1,499.2z"/>
<path class="st1" d="M54.2,476.2c-2.5,3.8-4.3,8-5.6,12.4c-1.1,3.9-1.5,8-1.4,12c0.3,8.3,2.7,16.4,6.8,23.7
	c3.1,5.5,6.9,10.6,11.3,15.1c2.1,1.5,4.3,2.9,6.4,4.3c0,0,0,0,0,0c0.1,0.1,0.2,0.1,0.3,0.2c0.4,0.3,0.9,0.6,1.3,0.9
	c0,0-0.5,0.2-0.2,0.1c0.1,0,0.2-0.1,0.2-0.1c-1.6-13.3,3.3-26.6,13.2-35.7c4.9-4.4,10.8-7.5,17.1-9.2c-0.3-0.4-0.6-0.9-1-1.3
	c-2.5,0.7-4.8,1.6-7.1,2.7c-8.2,3.9-14.9,10.4-19.2,18.5c-3.8,7.3-5.4,15.6-4.7,23.8c-0.4-0.3-0.7-0.7-1.1-1
	c-6.8-6.3-12.8-13.6-16.9-22c-3.5-7.1-5.3-15-5.1-22.9C49,489,52.5,481,57.5,474c5.5-7.4,11.9-14.1,19.2-19.8
	c7.3-5.9,15.4-10.8,23.9-14.8c0.4-0.2,0.6-0.7,0.4-1.1c-0.1-0.2-0.2-0.3-0.3-0.4c-0.2-0.1-0.4-0.1-0.5,0c-1.1,0.5-2.1,1-3.1,1.5
	c-8.6,4.3-16.7,9.6-24.1,15.9C65.8,461.4,59.1,468.3,54.2,476.2z"/>
<path class="st2" d="M315,546H1c-0.6,0-1-0.4-1-1s0.4-1,1-1h314c0.6,0,1,0.4,1,1S315.6,546,315,546z"/>
<circle class="st3" cx="180.2" cy="172.1" r="24.6"/>
<path class="st4" d="M161.2,137.6c3.3-5.7,9.6-9,16.1-8.6c3.4,0.4,6.7,1.3,9.8,2.7l16.1,6.3c4.2,1.6,8.7,3.6,10.5,7.7
	c1.7,3.8,0.4,8.2-0.8,12.1l-6,18.7c-0.7-4.2-1.8-8.4-3.4-12.4c-1.7-3.9-4.5-7.5-8.3-9.5c-4.2-2.1-9.1-2.1-13.8-1.9
	c-6.6,0.3-13.8,1.2-18.6,5.8c-2.5,2.7-4.2,6-4.9,9.5c-0.7,3.6-1,7.2-1,10.8c-2.7-4.7-5-9.6-6.8-14.7c-1.5-3.8-2.4-7.8-2.5-11.9
	c-0.2-4.1,1.2-8.1,3.8-11.3c2.7-3,7.1-4.7,11-3.5"/>
<path class="st4" d="M197.7,207.7c0,0-26-6-40.4,5s18.2,36,18.2,36L197.7,207.7z"/>
<path class="st3" d="M300.6,179.5c0.5,5.5-3.5,10.4-9.1,10.9c-0.6,0.1-1.2,0.1-1.8,0l-14.5,32.7l-10-15.6l15.3-28.6
	c0.8-5.5,6-9.3,11.5-8.5C296.6,171,300.2,174.8,300.6,179.5L300.6,179.5z"/>
<polygon class="st3" points="170.1,534.7 182.4,533.9 185.1,486.3 167,487.5 "/>
<path class="st4" d="M206.3,545h-38.5l0,0v-14.9l0,0h23.6C199.6,530.1,206.3,536.7,206.3,545L206.3,545L206.3,545z"/>
<polygon class="st3" points="191.3,517.8 202.8,522 224.6,479.7 207.6,473.4 "/>
<path class="st4" d="M221,540.9l-36.1-13.3l0,0l5.2-14l0,0l22.2,8.2C219.9,524.6,223.9,533.2,221,540.9L221,540.9L221,540.9z"/>
<path class="st4" d="M224.7,335c0,0,12.4,6.7,8.6,33.4l-3.8,101l-21.1,46l-18.1-4.8l11.5-37.5l-15.2-65.8l-2,119.4l-17.2,2.9
	l-24.7-198.5l31.4-14.3L224.7,335z"/>
<path class="st5" d="M194.7,203l-12.4,20l-18.1-18.1l-33.8,23.7c-2.4,1.7-3.4,4.9-2.3,7.6c5.2,12.9,18.5,50.9,14.7,94.9
	c0,0,25.7-6.7,52.4,1c26.7,7.6,33.4,4.8,33.4,4.8s-6.7-48.6-2.9-59.1c3.2-8.7,9.6-37.7,11.7-47.4c0.4-1.9-0.5-3.8-2.1-4.7L194.7,203
	z"/>
<path class="st5" d="M223.9,261.2l12-33.4l28.7-18.6l12.3-21.6l16.6,7.8l-16.6,31.3l-46,39.2c-1.7,1.4-4.1,1.4-5.8-0.1l0,0
	C223.7,264.8,223.3,262.9,223.9,261.2z"/>
<path class="st3" d="M147.8,365.2c2-5.2-0.6-11-5.8-13c-0.6-0.2-1.1-0.4-1.7-0.5l-5.3-35.3l-13.8,12.4l7.1,31.7
	c-0.7,5.5,3.3,10.6,8.8,11.2C141.7,372.3,146.2,369.6,147.8,365.2L147.8,365.2z"/>
<path class="st5" d="M130.7,228.3L130.7,228.3c-3,0.5-5.2,3-5.4,6l-5.5,109.2h20l6.7-58.1l-8.5-51.8
	C137.5,230.1,134.2,227.7,130.7,228.3C130.7,228.3,130.7,228.3,130.7,228.3z"/>
<polygon class="st2" points="273.2,546 101.5,546 101.5,543.9 273.6,543.9 "/>
<path class="st5" d="M170.2,281.8l3.9-31.9l33-9.2l8.9-18.9l26.2,14.9l-11.2,27.9l-49.4,25.1c-1.8,0.9-5.3-0.1-8.1-2.3l0,0
	C171.4,285.6,170,283.4,170.2,281.8z"/>
</svg>
